<svg width="95" height="27" viewBox="0 0 95 27" fill="none" xmlns="http://www.w3.org/2000/svg">
<path d="M0.533386 2.46666C0.933386 3.66666 1.33339 8.33332 1.33339 12.8667V21.2667H7.06672C14.0001 21.4 16.0001 19.8 16.0001 14.3333C16.0001 9.13332 13.2001 6.46665 8.66672 7.26665C5.73339 7.93332 5.33339 7.53332 5.33339 4.19999C5.33339 1.13332 4.66672 0.333322 2.53339 0.333322C0.533386 0.333322 5.23231e-05 0.866655 0.533386 2.46666ZM11.7334 14.0667C12.2667 16.7333 8.40005 18.6 6.40005 16.6C4.40005 14.6 6.26672 10.7333 8.93339 11.2667C10.2667 11.5333 11.4667 12.7333 11.7334 14.0667Z" fill="black"/>
<path d="M17.8668 2.46669C18.2668 3.66669 18.6668 8.46669 18.6668 13.1334C18.6668 19.8 19.0668 21.6667 20.6668 21.6667C22.2668 21.6667 22.6668 19.5334 22.6668 11C22.6668 1.00002 22.5334 0.333353 19.8668 0.333353C17.8668 0.333353 17.3334 0.866686 17.8668 2.46669Z" fill="black"/>
<path d="M56 2.33335C56 3.53335 57.2 4.33335 59.3333 4.33335C62.5333 4.33335 62.6667 4.60002 62.6667 13C62.6667 19.8 63.0667 21.6667 64.6667 21.6667C66.2667 21.6667 66.6667 19.8 66.6667 13C66.6667 4.60002 66.8 4.33335 70 4.33335C72.1333 4.33335 73.3333 3.53335 73.3333 2.33335C73.3333 0.733353 71.4667 0.333353 64.6667 0.333353C57.8667 0.333353 56 0.733353 56 2.33335Z" fill="black"/>
<path d="M79.0667 1.66667C72.5334 4.33333 71.2 14.4667 76.8 18.8667C81.6 22.6 87.3334 22.4667 91.3334 18.3333C96.5334 13.2667 94.9334 4.73333 88.4 1.8C84.6667 0.0666655 83.0667 0.0666655 79.0667 1.66667ZM89.0667 10.8667C89.4667 14.2 88.8 15.2667 86.1334 16.6C83.2 17.8 82.2667 17.6667 80 15.6667C76.6667 12.6 76.6667 10.3333 80 7C83.7334 3.26667 88.5334 5.26667 89.0667 10.8667Z" fill="black"/>
<path d="M27.6 9.40003C24.6667 12.6 24.8 16.7334 27.7334 19.4C32.8 23.9334 40.4 20.8667 40.4 14.3334C40.4 7.66669 32 4.46669 27.6 9.40003ZM36 13.6667C36 16.8667 32.5334 18.7334 30.4 16.6C28.2667 14.4667 30.1334 11 33.3334 11C35.0667 11 36 11.9334 36 13.6667Z" fill="black"/>
<path d="M44.0001 9.66667C43.3334 11 42.6667 13.4 42.6667 14.8667C42.6667 18.2 48.1334 22.0667 51.2001 20.8667C52.4001 20.4667 53.3334 20.6 53.3334 21.4C53.3334 23.2667 50.1334 24.3333 46.8001 23.4C44.8001 22.8667 44.0001 23.2667 44.0001 24.8667C44.0001 26.4667 45.3334 27 49.3334 27C55.8667 27 57.3334 24.6 57.3334 14.6V7.4L51.3334 7.26667C46.8001 7.13333 45.0667 7.66667 44.0001 9.66667ZM52.9334 13.1333C54.0001 16.0667 50.5334 18.0667 48.1334 15.8C47.2001 14.7333 46.8001 13.2667 47.2001 12.4667C48.5334 10.3333 52.0001 10.7333 52.9334 13.1333Z" fill="black"/>
</svg>
