<svg width="60" height="60" viewBox="0 0 60 60" fill="none" xmlns="http://www.w3.org/2000/svg">
<circle cx="30" cy="30" r="30" fill="#573D24"/>
<g clip-path="url(#clip0_1_6)">
<path d="M35.9242 41.9999C35.1472 41.7941 34.352 41.6376 33.5968 41.3723C31.6851 40.6947 29.9751 39.6381 28.3624 38.4264C25.2261 36.0689 22.5388 33.281 20.4262 29.9677C19.4722 28.4712 18.677 26.8935 18.2541 25.1556C18.0248 24.2135 17.8913 23.2714 18.1206 22.3018C18.2511 21.7244 18.5441 21.1964 18.9651 20.7799C19.6499 20.1016 20.3261 19.4131 21.0131 18.7377C21.9831 17.7825 23.4065 17.7426 24.3888 18.6833C25.5279 19.7737 26.6439 20.8879 27.737 22.0256C28.8927 23.2308 28.4625 25.0491 26.9041 25.689C25.5895 26.2296 25.0904 27.2348 25.5257 28.5828C25.7076 29.1433 25.9604 29.6784 26.278 30.1749C27.3808 31.886 28.8238 33.244 30.6556 34.1608C31.1519 34.4094 31.6677 34.6101 32.2452 34.5688C33.1999 34.5014 33.9414 34.0615 34.2381 33.1556C34.7699 31.5338 36.8688 31.0395 38.1268 32.3831C39.1381 33.4629 40.2111 34.4847 41.2667 35.5254C41.6896 35.9414 41.8935 36.4523 42.0002 37.0169V37.3792C41.8812 38.2177 41.4234 38.8496 40.8082 39.4019C40.4247 39.7464 40.0602 40.1115 39.7163 40.4954C39.0394 41.2491 38.2653 41.8427 37.2257 41.9999H35.9242Z" fill="#F8D385"/>
</g>
<defs>
<clipPath id="clip0_1_6">
<rect width="24" height="24" fill="white" transform="translate(18 18)"/>
</clipPath>
</defs>
</svg>
