<svg width="60" height="60" viewBox="0 0 60 60" fill="none" xmlns="http://www.w3.org/2000/svg">
<circle cx="30" cy="30" r="30" fill="#573D24"/>
<path d="M18 18.5952C18.188 18.1337 18.5081 17.9905 18.9448 18.0005C19.9761 18.0247 21.0074 18.0083 22.0399 18.009C22.5298 18.009 22.7441 18.1964 22.8807 18.7391C23.0812 19.5321 23.2819 20.3249 23.4828 21.1174C23.489 21.1416 23.4997 21.1644 23.5154 21.2079H41.119C41.236 21.201 41.3532 21.2089 41.4686 21.2314C41.9072 21.3475 42.0952 21.8012 41.9536 22.3653C41.4644 24.3122 40.9749 26.2565 40.485 28.1982C40.0577 29.8949 39.6308 31.5917 39.2043 33.2889C39.0721 33.8152 38.8547 34.0012 38.3767 34.0012C34.4379 34.0012 30.4987 33.9983 26.559 33.9926C26.2865 33.9926 26.1643 34.0945 26.0578 34.3601C25.7934 35.0247 26.0985 35.6002 26.742 35.6002C30.6027 35.6002 34.4636 35.6002 38.3247 35.6002C38.4262 35.5943 38.5279 35.5996 38.6286 35.6159C38.8017 35.6533 38.9562 35.7633 39.0612 35.9242C39.1662 36.0851 39.2142 36.2851 39.1954 36.4843C39.1767 36.6836 39.0928 36.8675 38.9602 36.9996C38.8277 37.1317 38.6563 37.2022 38.4801 37.1972C37.7608 37.2036 37.0422 37.1972 36.3229 37.1972C36.235 37.1946 36.147 37.2001 36.0598 37.2135C36.6343 37.3681 37.1029 37.7007 37.43 38.2585C37.589 38.5234 37.6988 38.8225 37.7527 39.1374C37.8065 39.4523 37.8033 39.7763 37.7433 40.0897C37.5478 41.2208 36.6374 42.0328 35.6055 41.9986C34.583 41.9652 33.746 41.0955 33.5869 39.8995C33.4277 38.7036 34.0768 37.6844 35.3299 37.2121H28.9806C29.5445 37.3717 30.0062 37.695 30.3345 38.2428C30.4965 38.5055 30.6095 38.8031 30.6665 39.1173C30.7235 39.4315 30.7233 39.7557 30.666 40.0698C30.5687 40.6234 30.3029 41.1204 29.9152 41.4733C29.5276 41.8262 29.0429 42.0125 28.5464 41.9993C27.512 41.9758 26.6668 41.1047 26.5045 39.8995C26.3423 38.6944 26.9926 37.6872 28.272 37.2029C27.7319 37.2029 27.2413 37.2029 26.7508 37.2029C25.0479 37.2029 24.0435 35.3751 24.8085 33.6493C24.8881 33.4874 24.9375 33.3086 24.9536 33.124C24.9697 32.9394 24.952 32.7531 24.9019 32.5766C23.8267 28.3335 22.7616 24.0848 21.6965 19.8375C21.6796 19.7662 21.6583 19.7028 21.6339 19.6081H21.1953C20.4435 19.6081 19.6916 19.5889 18.9442 19.6152C18.5081 19.6309 18.188 19.4827 18 19.0219V18.5952Z" fill="#F8D385"/>
</svg>
