  <svg width="26" height="26" viewBox="0 0 26 26" fill="none" xmlns="http://www.w3.org/2000/svg">
<g clip-path="url(#clip0_1_3)">
<path d="M13 26C20.1797 26 26 20.1797 26 13C26 5.8203 20.1797 0 13 0C5.8203 0 0 5.8203 0 13C0 20.1797 5.8203 26 13 26Z" fill="#573D24"/>
<path d="M7.80005 8.0579C7.88152 7.85792 8.02023 7.79586 8.20946 7.8002C8.65636 7.81068 9.10326 7.80358 9.55067 7.80388C9.76296 7.80388 9.85583 7.88509 9.91502 8.12026C10.0019 8.46389 10.0889 8.80744 10.1759 9.15085C10.1786 9.16134 10.1833 9.17122 10.1901 9.19007H17.8183C17.869 9.18708 17.9198 9.1905 17.9698 9.20025C18.1598 9.25056 18.2413 9.44717 18.1799 9.69161C17.968 10.5353 17.7558 11.3778 17.5435 12.2192C17.3584 12.9544 17.1734 13.6897 16.9886 14.4252C16.9313 14.6532 16.8371 14.7338 16.63 14.7338C14.9231 14.7338 13.2162 14.7326 11.5089 14.7301C11.3909 14.7301 11.3379 14.7743 11.2918 14.8894C11.1772 15.1774 11.3094 15.4267 11.5882 15.4267C13.2612 15.4267 14.9343 15.4267 16.6074 15.4267C16.6514 15.4242 16.6955 15.4265 16.7391 15.4335C16.8141 15.4497 16.8811 15.4974 16.9266 15.5671C16.9721 15.6369 16.9929 15.7235 16.9847 15.8098C16.9766 15.8962 16.9403 15.9759 16.8828 16.0331C16.8254 16.0904 16.7511 16.1209 16.6748 16.1188C16.3631 16.1215 16.0517 16.1188 15.74 16.1188C15.7019 16.1176 15.6637 16.12 15.626 16.1258C15.8749 16.1928 16.078 16.337 16.2197 16.5787C16.2886 16.6935 16.3362 16.8231 16.3596 16.9595C16.3829 17.096 16.3815 17.2364 16.3555 17.3722C16.2708 17.8623 15.8763 18.2142 15.4291 18.1994C14.986 18.1849 14.6233 17.808 14.5544 17.2898C14.4854 16.7715 14.7667 16.3299 15.3097 16.1252H12.5583C12.8027 16.1944 13.0027 16.3345 13.145 16.5719C13.2152 16.6857 13.2642 16.8147 13.2889 16.9508C13.3136 17.087 13.3135 17.2275 13.2886 17.3636C13.2465 17.6035 13.1313 17.8188 12.9633 17.9717C12.7953 18.1247 12.5853 18.2054 12.3702 18.1997C11.9219 18.1895 11.5557 17.812 11.4853 17.2898C11.415 16.7676 11.6968 16.3311 12.2512 16.1212C12.0172 16.1212 11.8046 16.1212 11.5921 16.1212C10.8541 16.1212 10.4189 15.3292 10.7504 14.5813C10.7849 14.5112 10.8063 14.4337 10.8133 14.3537C10.8203 14.2737 10.8126 14.193 10.7909 14.1165C10.325 12.2778 9.86341 10.4367 9.40187 8.59623C9.39454 8.56533 9.38531 8.53786 9.37474 8.49682H9.18468C8.8589 8.49682 8.53308 8.4885 8.2092 8.4999C8.02023 8.5067 7.88152 8.44248 7.80005 8.2428V8.0579Z" fill="#F8D385"/>
</g>
<defs>
<clipPath id="clip0_1_3">
<rect width="26" height="26" fill="white"/>
</clipPath>
</defs>
</svg>
