<svg width="60" height="60" viewBox="0 0 60 60" fill="none" xmlns="http://www.w3.org/2000/svg">
<circle cx="30" cy="30" r="30" fill="#573D24"/>
<path d="M21 26.9266V25.9604C21.028 25.7913 21.0657 25.6252 21.0841 25.4532C21.2599 23.8107 21.8048 22.2996 22.7913 20.974C25.6792 17.0957 30.5903 15.888 34.9072 18.0996C37.6453 19.5035 39.2994 21.7952 39.8627 24.8532C40.2608 27.0107 39.7467 29.0261 38.9197 30.9826C37.3265 34.7507 34.9584 38.0357 32.3845 41.1768C31.8898 41.7797 31.3333 42.3313 30.8057 42.9062H30.226C29.9661 42.6492 29.6743 42.4183 29.4531 42.1333C28.085 40.3787 26.6763 38.655 25.3903 36.8396C23.8599 34.6802 22.5362 32.3874 21.6995 29.858C21.3865 28.9082 21.229 27.9053 21 26.9266ZM30.5236 31.0986C33.1593 31.0928 35.2994 28.973 35.2927 26.3826C35.2859 23.7923 33.1313 21.6687 30.5101 21.6764C27.8888 21.6841 25.7343 23.8078 25.742 26.3962C25.7497 28.9846 27.8937 31.1053 30.5236 31.0986Z" fill="#F8D385"/>
</svg>
